<?xml version="1.0" standalone="no"?>
<!DOCTYPE svg PUBLIC "-//W3C//DTD SVG 20010904//EN"
 "http://www.w3.org/TR/2001/REC-SVG-20010904/DTD/svg10.dtd">
<svg version="1.0" xmlns="http://www.w3.org/2000/svg"
 width="591.000000pt" height="587.000000pt" viewBox="0 0 591.000000 587.000000"
 preserveAspectRatio="xMidYMid meet">

<g transform="translate(0.000000,587.000000) scale(0.100000,-0.100000)"
fill="#000000" stroke="none">
<path d="M1155 5853 c-198 -23 -408 -99 -575 -208 -41 -27 -123 -97 -181 -155
-197 -197 -317 -419 -376 -700 -17 -80 -18 -191 -18 -1845 0 -1644 1 -1766 18
-1847 68 -333 246 -626 497 -816 104 -78 298 -174 405 -201 197 -48 122 -46
2010 -46 1957 0 1875 -2 2062 60 373 126 677 420 812 786 69 188 81 310 79
809 0 228 -3 402 -4 385 -2 -16 -5 -226 -8 -465 -2 -258 -8 -455 -15 -485 -31
-146 -70 -260 -121 -361 -52 -102 -147 -243 -187 -275 -9 -8 13 25 50 72 70
91 179 294 196 363 5 22 16 68 25 101 29 110 34 207 35 708 1 354 -2 503 -10
518 -8 16 -8 27 2 46 10 18 10 26 1 32 -8 5 -12 307 -15 1216 -4 1295 -1 1228
-51 1385 -49 153 -150 343 -232 436 -11 12 -33 36 -49 55 -178 198 -432 338
-695 383 -113 19 -291 24 -1110 31 -333 3 -690 6 -795 7 -104 2 258 5 805 8
814 4 675 5 -765 6 -968 1 -1773 -1 -1790 -3z m3516 -595 c-11 -10 -12 -10 -7
0 4 6 2 12 -3 12 -6 0 -11 8 -11 17 0 16 1 16 17 0 14 -14 15 -19 4 -29z m192
18 c-15 -23 -10 -32 16 -30 14 1 27 3 29 4 6 6 28 5 32 -1 9 -12 50 -21 50
-11 0 6 -6 13 -12 15 -8 3 -6 6 5 6 11 1 17 -6 17 -19 0 -23 3 -23 48 -11 26
8 32 7 32 -6 0 -9 3 -13 7 -10 3 4 13 1 21 -6 13 -10 14 -9 7 2 -6 11 -3 13
14 8 19 -5 21 -3 9 11 -7 9 -1 7 13 -5 20 -19 28 -20 40 -10 8 6 4 2 -8 -10
-26 -25 -30 -38 -9 -30 8 3 17 -1 20 -9 3 -8 13 -14 21 -14 9 0 14 4 10 9 -3
5 -1 12 4 15 10 7 9 -13 -2 -31 -5 -8 5 -10 38 -7 47 4 57 -6 31 -32 -13 -12
-15 -11 -19 8 -3 21 -4 21 -12 5 -11 -27 8 -42 35 -27 20 11 21 10 15 -9 -7
-22 9 -29 21 -9 4 7 3 8 -4 4 -8 -5 -10 -1 -5 9 4 13 8 14 14 4 4 -7 4 -20 -1
-29 -6 -12 -3 -16 13 -17 15 -2 17 1 9 6 -10 6 -10 10 2 20 13 11 15 9 13 -14
-1 -14 -9 -31 -17 -36 -13 -9 -12 -10 3 -5 15 5 22 -4 18 -27 0 -4 2 -6 6 -5
5 1 18 -3 31 -10 20 -11 22 -10 22 8 0 20 11 26 23 13 4 -3 1 -13 -6 -21 -10
-13 -9 -15 6 -9 15 6 19 1 16 -19 0 -4 5 -11 13 -15 8 -5 9 -9 2 -9 -7 0 -15
-7 -18 -16 -6 -14 -4 -15 9 -4 14 12 15 10 11 -13 -3 -17 2 -35 14 -49 16 -20
20 -21 36 -8 17 14 18 13 7 -1 -7 -9 -9 -20 -5 -24 4 -5 1 -5 -5 -1 -8 4 -13
2 -13 -5 0 -8 -4 -8 -15 1 -10 9 -15 9 -15 1 0 -6 5 -11 11 -11 5 0 8 -4 5 -9
-7 -10 20 -9 30 2 11 11 24 -3 24 -25 0 -16 4 -19 24 -14 14 3 28 1 32 -6 4
-7 3 -8 -4 -4 -7 4 -12 3 -12 -2 0 -6 -8 -8 -19 -5 -10 3 -22 0 -25 -5 -9 -15
5 -43 18 -35 6 4 5 -1 -3 -10 -12 -15 -11 -17 2 -17 9 0 18 8 20 18 3 10 5 6
6 -10 1 -18 -4 -27 -11 -25 -15 2 -20 -54 -7 -75 7 -10 9 -9 9 5 0 9 8 17 18
18 14 0 14 2 -3 9 -11 5 -16 9 -11 9 5 1 2 9 -5 18 -10 11 -10 14 -2 9 8 -4
17 2 25 18 13 29 25 34 25 11 0 -8 -4 -15 -9 -15 -4 0 -8 -7 -8 -15 0 -8 3
-15 8 -15 4 0 13 -10 21 -22 13 -21 13 -22 -2 -9 -19 15 -22 8 -7 -19 9 -16 8
-18 -6 -13 -15 5 -15 4 1 -20 9 -15 13 -27 9 -27 -5 0 -9 -13 -9 -29 -1 -23 2
-27 11 -20 7 6 12 16 10 22 -1 7 -1 8 2 4 2 -4 10 0 18 10 8 11 13 13 14 5 0
-7 -9 -20 -19 -29 -11 -9 -17 -21 -14 -26 3 -5 -1 -14 -8 -19 -9 -6 -10 -11
-3 -14 6 -2 9 -20 8 -39 -2 -19 1 -35 6 -35 6 0 9 3 9 8 -1 4 0 12 1 17 1 6 1
28 0 49 -2 34 0 38 13 28 7 -6 17 -9 21 -5 4 4 6 -10 4 -32 -1 -25 2 -40 11
-43 11 -4 11 -6 0 -13 -10 -6 -9 -12 6 -31 13 -15 14 -18 3 -10 -25 19 -31 -2
-8 -28 11 -13 20 -28 20 -33 0 -6 -6 -2 -14 9 -14 18 -15 17 -12 -11 1 -17 6
-36 10 -44 6 -10 5 -12 -2 -7 -8 5 -11 -1 -10 -18 1 -13 5 -23 8 -22 3 2 14 0
25 -5 17 -7 17 -8 -7 -8 -26 -1 -42 -21 -17 -21 6 0 8 -8 4 -19 -3 -11 -1 -22
4 -26 6 -3 8 0 5 8 -3 8 2 20 11 27 10 8 15 9 15 1 0 -6 -4 -11 -10 -11 -5 0
-10 -5 -10 -11 0 -5 4 -8 8 -5 5 3 9 -1 9 -9 0 -8 -5 -13 -10 -12 -5 1 -13
-10 -18 -26 -5 -18 -4 -25 3 -21 7 5 9 -2 6 -19 -3 -15 -1 -24 4 -21 13 8 27
-39 17 -58 -7 -14 -6 -16 6 -12 8 4 15 1 15 -5 0 -6 -6 -11 -12 -12 -7 0 -4
-4 7 -9 19 -8 19 -9 1 -9 -18 -1 -18 -2 -1 -21 16 -18 16 -20 2 -26 -10 -4
-15 -14 -13 -27 3 -12 5 -28 5 -35 1 -7 6 -10 11 -7 6 4 7 11 4 17 -4 7 -2 8
5 4 8 -6 9 -12 2 -20 -6 -7 -7 -17 -3 -21 4 -5 0 -6 -10 -2 -13 5 -15 0 -11
-24 2 -17 -1 -36 -7 -44 -7 -8 -7 -15 -1 -19 5 -4 8 -16 6 -28 -3 -12 1 -28 7
-35 8 -11 7 -12 -6 -7 -14 5 -15 3 -6 -20 9 -24 6 -30 -13 -27 -5 1 -6 -3 -2
-9 3 -5 13 -10 21 -10 12 0 12 -3 -1 -24 -11 -16 -13 -26 -6 -31 19 -11 12
-28 -9 -22 -10 3 -19 2 -18 -2 3 -29 -4 -51 -14 -44 -7 4 -5 -6 6 -21 18 -28
18 -29 0 -23 -18 7 -18 7 0 -8 10 -8 23 -12 29 -8 6 3 7 1 3 -6 -4 -6 -10 -9
-14 -7 -4 2 -13 -2 -19 -10 -7 -7 -9 -15 -4 -19 5 -3 11 1 14 7 3 7 4 3 4 -9
-1 -13 -7 -23 -14 -23 -6 0 -15 -5 -19 -12 -4 -7 -3 -8 4 -4 6 3 16 -2 21 -13
15 -28 13 -38 -3 -16 -12 17 -13 16 -12 -16 0 -19 6 -37 11 -41 6 -5 5 -8 -4
-8 -7 0 -11 -6 -7 -15 3 -8 1 -15 -3 -15 -5 0 -7 -18 -4 -40 3 -24 1 -46 -6
-54 -8 -10 -9 -16 -1 -21 13 -8 13 -45 -1 -45 -5 0 -7 -5 -3 -11 4 -7 1 -10
-7 -7 -9 3 -14 20 -15 43 0 28 -5 39 -17 41 -10 1 -14 -2 -10 -9 11 -17 13
-148 2 -142 -5 4 -9 -3 -9 -15 0 -14 4 -19 13 -14 10 6 10 4 0 -7 -7 -7 -13
-17 -13 -22 0 -4 6 -5 13 -2 6 3 2 -2 -11 -11 -22 -16 -22 -18 -5 -37 10 -11
12 -17 6 -13 -7 4 -13 3 -13 -3 0 -5 6 -12 13 -14 10 -4 -12 -10 -33 -9 -3 0
-6 -15 -7 -34 -1 -21 2 -32 8 -28 6 3 5 -3 -2 -15 -8 -11 -16 -17 -19 -13 -10
13 -28 11 -34 -3 -3 -8 0 -15 6 -15 6 0 5 -6 -3 -17 -8 -9 -9 -14 -3 -10 12 7
29 -21 19 -31 -3 -3 -5 0 -5 6 0 6 -9 10 -19 9 -11 0 -18 -4 -15 -8 2 -4 -2
-10 -8 -12 -8 -4 -5 -8 9 -12 13 -4 20 -12 16 -21 -3 -8 -10 -11 -16 -7 -6 4
-8 -2 -5 -15 4 -13 2 -20 -5 -19 -6 1 -12 -11 -13 -28 -1 -48 -3 -57 -13 -50
-12 7 -25 -31 -15 -46 4 -7 3 -9 -3 -6 -6 4 -16 1 -22 -7 -9 -11 -9 -15 1 -18
10 -4 10 -8 -1 -21 -7 -10 -10 -17 -6 -17 4 0 2 -6 -4 -13 -6 -8 -8 -17 -4
-20 3 -4 1 -7 -5 -7 -15 0 -16 27 -1 32 8 3 6 9 -4 20 -9 8 -15 17 -14 19 1 3
-3 -1 -9 -8 -6 -7 -14 -9 -18 -5 -4 4 -7 3 -6 -3 4 -19 0 -36 -8 -31 -4 2 -8
-8 -7 -22 0 -22 -4 -27 -22 -26 -29 2 -30 -10 -3 -22 20 -9 20 -9 1 -26 -16
-14 -20 -14 -25 -2 -3 9 1 14 12 15 11 0 12 2 4 6 -7 3 -19 -1 -27 -7 -12 -10
-13 -16 -3 -28 10 -13 10 -14 0 -8 -7 4 -15 1 -18 -9 -6 -14 -9 -14 -16 -3 -7
10 -8 9 -4 -4 3 -10 3 -25 0 -33 -5 -13 -9 -13 -22 -3 -13 11 -14 11 -7 -1 13
-22 13 -62 0 -57 -15 5 -38 -31 -25 -39 6 -3 10 -10 10 -14 0 -12 -33 -8 -42
4 -7 9 -13 -17 -9 -38 1 -5 -3 -5 -9 -2 -6 4 -9 13 -6 21 3 8 2 14 -3 14 -12
0 -20 -46 -10 -61 11 -18 -22 -41 -38 -27 -10 8 -13 6 -13 -6 0 -9 -7 -16 -15
-16 -12 0 -13 -4 -5 -19 14 -28 13 -34 -9 -28 -25 6 -41 -4 -46 -32 -2 -12 0
-19 6 -16 15 10 10 -15 -6 -31 -13 -14 -15 -14 -15 0 0 8 -4 17 -8 20 -4 3 -8
-13 -8 -35 0 -21 -4 -39 -10 -38 -5 0 -8 8 -6 17 2 14 1 14 -7 3 -5 -8 -7 -21
-3 -29 3 -9 1 -13 -5 -9 -6 4 -16 0 -23 -9 -7 -8 -19 -13 -26 -10 -21 8 -25
-7 -7 -28 14 -16 14 -18 2 -8 -13 10 -19 9 -29 -2 -6 -9 -9 -19 -6 -24 3 -5 0
-9 -7 -10 -75 -10 -96 -18 -87 -32 5 -8 10 -10 10 -4 0 7 13 14 29 16 17 2 28
1 25 -4 -3 -4 -13 -8 -24 -8 -10 0 -20 -7 -24 -15 -3 -8 -13 -15 -21 -15 -10
0 -13 -5 -9 -12 6 -10 5 -10 -7 -1 -17 14 -37 1 -58 -40 -8 -15 -20 -27 -27
-27 -6 0 -15 -7 -18 -16 -9 -24 -7 -36 6 -28 7 5 8 3 3 -6 -6 -10 -11 -10 -20
3 -7 9 -15 14 -18 10 -4 -3 -2 -12 5 -20 6 -8 7 -13 2 -12 -5 1 -22 -3 -38
-10 -25 -10 -27 -13 -15 -28 9 -10 9 -14 2 -10 -8 5 -14 -4 -19 -28 -6 -33
-13 -39 -41 -36 -7 1 -13 -7 -13 -18 0 -11 -5 -23 -10 -26 -6 -4 -8 -10 -6
-14 3 -4 1 -13 -5 -21 -5 -8 -9 -10 -9 -5 0 7 -18 9 -47 5 -45 -5 -48 -7 -45
-32 2 -14 -2 -29 -8 -33 -5 -3 -8 -10 -5 -15 3 -5 -7 -5 -22 -1 -38 10 -66 3
-59 -15 3 -8 1 -14 -4 -14 -6 0 -10 8 -11 18 0 11 -2 12 -6 4 -3 -7 -16 -24
-28 -36 -18 -18 -25 -21 -29 -10 -3 8 0 13 7 11 7 -1 11 4 9 12 -1 7 2 19 8
26 10 11 7 12 -14 2 -18 -8 -24 -18 -22 -33 5 -28 -5 -43 -29 -43 -40 -1 -54
-4 -49 -12 2 -4 0 -10 -6 -14 -5 -3 -15 -15 -20 -26 -9 -15 -7 -19 5 -19 8 0
15 9 15 20 0 11 2 20 4 20 2 0 11 3 20 6 9 3 16 1 16 -6 0 -6 -5 -8 -10 -5 -6
3 -15 -6 -20 -20 -9 -22 -15 -26 -35 -21 -14 4 -25 2 -25 -3 0 -5 -8 -7 -18
-4 -12 3 -19 -1 -20 -11 -1 -9 -3 -23 -4 -31 -1 -8 -5 -12 -9 -9 -4 2 -6 13
-4 24 2 10 -2 24 -10 30 -10 9 -13 7 -10 -7 2 -10 4 -18 5 -18 1 0 3 -10 4
-22 1 -12 -1 -20 -6 -17 -4 3 -8 12 -8 21 0 13 -3 13 -15 3 -8 -7 -15 -9 -15
-4 0 4 -5 3 -11 -3 -6 -6 -19 -9 -28 -6 -9 4 -13 2 -8 -2 4 -5 -1 -17 -10 -28
-10 -10 -17 -22 -16 -26 1 -3 -6 -6 -16 -5 -10 1 -18 -5 -18 -12 0 -16 14 -19
19 -4 2 5 9 6 17 1 10 -6 5 -11 -18 -16 -22 -5 -39 -2 -57 10 -13 8 -30 13
-36 9 -7 -5 -8 -2 -3 7 5 8 -1 6 -13 -5 -12 -10 -19 -24 -15 -30 3 -6 3 -8 -2
-4 -11 10 -47 -11 -40 -23 4 -5 11 -6 17 -3 7 4 8 2 4 -5 -8 -12 -30 -1 -48
23 -4 6 -12 5 -21 -3 -8 -6 -17 -8 -19 -4 -3 4 -4 3 -2 -3 1 -6 -2 -17 -7 -25
-7 -11 -9 -11 -9 -1 0 7 -5 10 -10 7 -8 -5 -7 -11 1 -21 9 -11 8 -14 -4 -14
-8 0 -21 8 -28 17 -8 9 -9 14 -4 11 6 -4 12 2 12 13 2 17 0 18 -13 4 -9 -8
-21 -12 -27 -8 -7 4 -5 -2 3 -12 14 -17 14 -18 -7 -6 -13 6 -22 17 -20 23 1 6
-4 12 -11 14 -7 1 -8 0 -3 -2 5 -3 6 -14 3 -26 -3 -14 -1 -19 6 -14 6 3 14 1
18 -5 5 -9 -1 -10 -20 -5 -19 5 -26 3 -24 -6 2 -7 -2 -13 -7 -13 -6 0 -9 6 -8
13 0 8 -5 11 -13 8 -8 -3 -13 0 -11 6 1 5 -6 12 -15 13 -14 3 -15 -1 -7 -22 9
-24 8 -25 -16 -19 -18 5 -25 2 -25 -8 0 -9 6 -13 13 -10 19 7 42 -22 26 -32
-7 -4 -9 -3 -5 4 12 20 -16 24 -30 4 -13 -20 -17 -20 -54 -7 -22 8 -40 11 -40
8 0 -4 -5 -2 -11 4 -8 8 -20 7 -45 -3 -45 -19 -60 -18 -44 1 7 8 8 15 4 15 -5
0 -15 -9 -22 -21 -8 -12 -9 -18 -3 -15 5 4 12 2 16 -4 4 -6 11 -7 17 -4 6 4 8
2 5 -4 -4 -5 -16 -8 -27 -5 -11 3 -20 1 -20 -5 0 -18 -33 -6 -40 14 -7 18 -8
17 -14 -4 -7 -21 -26 -22 -26 -1 0 6 4 7 10 4 6 -3 10 -2 10 3 0 5 -12 10 -26
10 -18 0 -22 -3 -13 -9 11 -7 11 -9 -2 -9 -9 0 -22 6 -28 14 -12 14 -35 16
-47 3 -11 -10 -36 -8 -29 2 3 5 0 13 -6 17 -8 4 -9 3 -5 -4 4 -7 3 -12 -3 -12
-5 0 -8 -9 -6 -20 2 -11 0 -18 -6 -15 -5 4 -9 13 -9 21 0 8 -8 14 -17 13 -11
0 -13 -3 -5 -6 6 -2 9 -9 6 -14 -4 -6 -10 -6 -18 0 -9 8 -13 7 -13 -4 0 -8 6
-15 14 -15 7 0 13 -7 13 -15 0 -19 -7 -19 -27 0 -9 10 -14 27 -11 45 4 24 2
27 -9 18 -10 -8 -17 -7 -28 8 -9 10 -15 15 -14 9 1 -5 1 -15 0 -22 -2 -18 -72
-4 -101 21 l-25 21 24 -28 c14 -15 21 -28 18 -28 -4 -1 -12 -2 -18 -3 -7 0
-15 -10 -19 -21 -7 -19 -8 -19 -15 -2 -6 14 -10 15 -21 6 -11 -9 -14 -9 -14 0
0 6 7 14 15 17 13 5 12 10 -6 25 -28 24 -32 24 -20 1 6 -12 6 -23 -1 -33 -8
-11 -9 -11 -4 3 4 13 0 18 -12 18 -10 0 -23 5 -30 12 -9 9 -12 8 -12 -5 0 -15
12 -22 33 -18 5 1 6 -3 2 -9 -4 -6 -1 -17 5 -25 7 -8 10 -15 6 -15 -3 0 -9 0
-13 0 -5 0 -9 5 -9 10 -1 6 -2 14 -3 19 0 5 -9 12 -20 16 -12 4 -17 13 -15 30
1 14 -2 23 -7 19 -5 -3 -9 -12 -9 -20 0 -8 -4 -14 -10 -14 -5 0 -7 -6 -4 -14
3 -8 0 -17 -6 -21 -6 -3 -10 -3 -9 2 1 4 1 10 0 13 -1 3 -4 20 -5 38 -2 18 -9
39 -16 47 -11 14 -15 13 -32 -5 -20 -22 -33 -27 -22 -8 4 6 -2 18 -12 26 -19
14 -19 15 0 8 16 -5 17 -4 6 9 -9 11 -9 15 -1 15 6 0 14 -7 17 -15 5 -11 11
-12 25 -4 13 7 19 6 19 -1 0 -6 5 -8 10 -5 14 9 1 28 -14 22 -7 -3 -19 -1 -27
4 -12 8 -12 10 1 8 25 -2 40 1 40 9 0 12 -42 13 -56 1 -8 -6 -14 -5 -18 6 -4
11 -2 14 7 10 6 -3 2 1 -10 10 -19 14 -20 20 -10 42 9 21 8 27 -6 34 -16 9
-16 12 0 35 12 18 14 31 7 42 -12 21 -6 65 7 56 5 -3 6 -11 2 -17 -5 -8 -2 -8
9 0 8 7 19 9 23 5 5 -4 5 -1 1 6 -4 7 -12 9 -18 6 -7 -5 -9 -2 -5 8 4 12 1 14
-14 11 -20 -6 -23 5 -13 44 7 24 30 21 52 -6 11 -14 11 -14 6 2 -3 9 -2 17 4
17 5 0 13 7 16 16 3 9 2 12 -5 9 -5 -4 -18 -1 -27 7 -16 12 -16 11 -2 -6 14
-18 13 -19 -3 -13 -10 4 -22 7 -27 7 -13 0 -19 39 -8 47 7 3 8 1 4 -5 -4 -7
-1 -12 9 -12 9 0 13 4 10 10 -3 6 1 7 9 4 10 -4 16 -1 16 10 0 9 6 13 13 10 8
-3 14 2 14 10 0 10 -5 13 -15 7 -20 -12 -46 -3 -60 19 -9 14 -9 21 0 26 7 4 8
3 4 -4 -4 -7 -2 -12 3 -12 6 0 11 5 11 10 0 6 9 10 21 10 11 0 17 -4 14 -10
-3 -5 -1 -10 4 -10 6 0 11 9 11 19 0 19 -10 20 -247 21 -136 0 -249 3 -252 5
-2 3 552 5 1231 5 l1236 0 31 29 31 29 -2 389 -3 388 -5 -393 -5 -393 -25 -19
c-24 -19 -62 -20 -1533 -20 l-1508 0 -25 25 c-25 25 -26 30 -22 126 3 93 5
102 28 119 24 19 52 20 816 20 785 0 792 0 818 21 19 15 26 29 25 52 l-2 32
-4 -30 c-9 -60 -26 -65 -247 -65 -110 0 -196 3 -192 7 9 9 26 11 175 12 138 1
143 11 7 13 -53 0 -99 5 -102 10 -3 5 0 7 7 6 6 -2 13 9 16 24 3 23 0 27 -14
22 -15 -5 -15 -4 1 7 19 12 19 12 0 26 -15 11 -16 17 -7 31 9 16 8 18 -10 18
-11 -1 -22 6 -25 14 -5 13 -3 13 11 1 18 -14 22 -8 18 32 -1 9 4 18 11 19 7 2
-210 5 -482 8 l-495 5 632 3 c458 1 639 -1 657 -9 14 -7 30 -24 35 -38 5 -15
10 -19 10 -10 1 9 -8 27 -18 40 l-19 24 -807 5 -807 5 -19 24 c-16 19 -19 40
-19 126 0 86 3 107 19 126 l19 24 1489 3 c818 1 1503 0 1521 -3 18 -3 42 -15
53 -26 10 -10 19 -15 19 -11 0 5 -9 17 -21 28 -20 18 -59 19 -1233 24 -826 4
-1067 7 -756 10 250 2 400 6 334 7 l-122 4 -8 37 c-4 20 -8 39 -8 42 -1 3 -5
11 -9 17 -6 9 -3 11 7 7 9 -3 16 -1 16 5 0 6 -15 11 -32 11 -18 0 -28 4 -23 8
6 4 10 14 10 22 0 8 5 14 10 13 6 -1 12 7 12 18 2 18 0 19 -14 7 -12 -9 -15
-10 -9 -1 5 9 -2 13 -26 13 -28 1 -30 2 -15 11 11 6 31 9 46 6 15 -3 33 -2 41
4 10 5 -115 10 -330 11 -190 2 170 5 800 8 l1145 5 -1443 3 -1443 2 -24 25
-25 24 0 229 c0 211 -2 232 -19 253 -19 24 -22 24 -256 29 l-237 5 -24 28
c-16 18 -24 40 -24 64 0 44 16 60 227 231 81 67 234 191 338 277 189 154 345
282 815 663 135 109 244 204 242 211 -1 7 2 10 8 6 10 -6 40 15 201 146 52 42
125 102 164 133 101 81 147 86 223 20 24 -20 45 -34 48 -31 3 3 -18 24 -46 46
-29 23 -48 41 -42 41 5 0 29 -17 53 -38 24 -21 112 -91 195 -155 122 -93 155
-115 174 -110 17 5 21 3 15 -7 -6 -9 -4 -11 5 -5 10 6 10 11 -3 20 -17 12 -20
65 -4 65 4 0 6 4 3 9 -3 5 5 12 19 15 16 4 25 13 25 26 0 11 6 20 14 20 8 0
17 7 20 16 4 9 13 14 22 10 8 -3 13 -2 10 3 -3 4 1 16 8 27 8 10 13 23 12 29
-2 5 -1 7 1 3 3 -5 11 -8 19 -8 9 0 12 -4 9 -10 -3 -5 -1 -10 4 -10 6 0 11 8
11 19 0 25 25 45 49 38 14 -3 18 -1 14 9 -3 8 -10 11 -17 7 -6 -3 -1 5 12 19
12 13 28 25 35 25 6 0 21 4 32 8 16 5 17 5 5 -4 -9 -7 -10 -11 -3 -11 6 0 15
5 18 11 4 6 13 8 21 5 8 -3 11 0 7 9 -3 8 2 18 11 21 9 3 16 10 16 16 0 5 -5
6 -12 2 -6 -4 -8 -3 -4 4 3 6 15 9 26 7 11 -2 23 1 26 7 5 7 2 8 -6 3 -9 -5
-11 -4 -6 3 4 8 15 8 31 2 18 -7 23 -6 20 3 -7 16 50 48 62 36 6 -6 10 -4 10
5 0 8 -3 13 -7 11 -4 -2 -13 1 -21 8 -8 7 -12 11 -10 10 2 -1 12 2 22 8 13 6
19 6 19 -1 0 -5 9 -10 20 -10 11 0 20 7 20 15 0 8 5 15 11 15 5 0 7 6 4 13 -4
6 -1 5 7 -3 17 -19 39 -24 37 -8 -4 32 3 44 27 46 17 1 23 -2 18 -10 -4 -7 -3
-8 4 -4 9 5 9 13 0 29 -10 19 -9 20 4 10 8 -7 19 -9 23 -5 5 4 5 2 1 -5 -3 -6
-2 -14 3 -17 13 -9 21 20 9 32 -8 8 -5 9 9 6 15 -4 22 0 26 15 5 22 50 30 62
11 4 -6 -1 -7 -12 -3 -14 5 -15 3 -6 -7 14 -16 36 -3 28 17 -4 13 -3 14 10 3
13 -11 15 -10 9 6 -5 18 -5 18 9 1 15 -18 16 -18 26 1 6 11 7 22 4 26 -3 3 1
6 10 6 9 0 17 4 17 9 0 4 14 7 31 5 20 -3 28 0 23 8 -5 7 -3 8 7 2 17 -10 69
-13 63 -3 -2 4 3 10 12 13 14 5 14 9 3 24 -11 14 -11 15 1 5 19 -18 28 -16 33
5 3 11 7 6 12 -16 6 -24 10 -30 16 -20 5 7 9 9 9 3 0 -5 4 -4 9 4 11 18 3 43
-12 34 -6 -3 -7 -1 -3 6 10 16 36 -4 36 -28 0 -14 2 -14 10 -1 8 13 11 12 25
-5 9 -11 14 -14 10 -7 -4 8 1 11 17 8 13 -2 31 1 41 6 11 6 17 5 17 -2 0 -6 7
-19 16 -27 12 -13 15 -13 14 -2 -1 8 -2 23 -1 34 1 16 3 17 10 5 6 -8 8 -17 6
-20 -2 -4 2 -7 10 -7 15 0 16 3 19 30 0 6 6 12 13 12 7 0 17 5 24 12 14 14 42
5 32 -11z m-130 0 c4 -10 1 -13 -8 -9 -8 3 -12 9 -9 14 7 12 11 11 17 -5z
m152 -5 c-3 -6 -11 -11 -16 -11 -5 0 -4 6 3 14 14 16 24 13 13 -3z m-248 3
c-3 -3 -12 -4 -19 -1 -8 3 -5 6 6 6 11 1 17 -2 13 -5z m393 -35 c0 -5 -4 -9
-10 -9 -5 0 -10 7 -10 16 0 8 5 12 10 9 6 -3 10 -10 10 -16z m190 -49 c0 -5
-2 -10 -4 -10 -3 0 -8 5 -11 10 -3 6 -1 10 4 10 6 0 11 -4 11 -10z m-1210
-146 c0 -8 -19 -13 -24 -6 -3 5 1 9 9 9 8 0 15 -2 15 -3z m1400 -8 c-14 -14
-12 -26 5 -26 8 0 15 -4 15 -9 0 -5 -9 -7 -20 -4 -22 6 -25 50 -3 50 10 0 10
-4 3 -11z m120 -196 c0 -5 -2 -10 -4 -10 -3 0 -8 5 -11 10 -3 6 -1 10 4 10 6
0 11 -4 11 -10z m-2670 -33 c0 -1 -21 -20 -47 -41 l-48 -38 44 41 c40 38 51
46 51 38z m-100 -80 c0 -2 -10 -12 -22 -23 l-23 -19 19 23 c18 21 26 27 26 19z
m-70 -61 c0 -2 -8 -10 -17 -17 -16 -13 -17 -12 -4 4 13 16 21 21 21 13z m3010
-95 c0 -6 -4 -13 -10 -16 -5 -3 -10 1 -10 9 0 9 5 16 10 16 6 0 10 -4 10 -9z
m67 -237 c-3 -3 -12 -4 -19 -1 -8 3 -5 6 6 6 11 1 17 -2 13 -5z m16 -99 c-3
-9 -8 -14 -10 -11 -3 3 -2 9 2 15 9 16 15 13 8 -4z m-16 -57 c0 -13 -1 -17 -4
-10 -3 6 -10 9 -16 5 -7 -4 -6 1 2 10 17 21 17 21 18 -5z m11 -153 c7 -15 6
-24 -6 -35 -14 -13 -15 -13 -10 1 3 9 2 22 -2 29 -5 8 -6 18 -3 23 6 10 7 9
21 -18z m-9 -637 c0 -27 -2 -29 -8 -13 -5 11 -6 26 -4 33 8 21 13 13 12 -20z
m1 -252 c0 -2 -7 -7 -16 -10 -8 -3 -12 -2 -9 4 6 10 25 14 25 6z m-66 -237
c-9 -10 -13 -23 -8 -30 4 -7 3 -10 -3 -6 -6 4 -13 24 -15 46 -3 38 -3 38 20
23 21 -14 22 -16 6 -33z m-9 -68 c3 -5 1 -12 -5 -16 -5 -3 -10 1 -10 9 0 18 6
21 15 7z m-3050 -481 c-3 -5 -11 -10 -16 -10 -6 0 -7 5 -4 10 3 6 11 10 16 10
6 0 7 -4 4 -10z m62 -135 c0 -8 -4 -12 -9 -9 -4 3 -8 9 -8 15 0 5 4 9 8 9 5 0
9 -7 9 -15z m2203 -605 c0 -5 -2 -10 -4 -10 -3 0 -8 5 -11 10 -3 6 -1 10 4 10
6 0 11 -4 11 -10z m-2340 -26 c0 -2 -39 -3 -87 -2 l-88 2 75 5 c70 6 100 4
100 -5z m-223 0 c-3 -3 -12 -4 -19 -1 -8 3 -5 6 6 6 11 1 17 -2 13 -5z m2419
-86 c5 -8 2 -9 -9 -5 -10 4 -17 1 -17 -5 0 -6 -3 -9 -6 -5 -7 7 4 27 16 27 5
0 12 -5 16 -12z m-26 -38 c0 -5 -7 -7 -15 -4 -8 4 -15 8 -15 10 0 2 7 4 15 4
8 0 15 -4 15 -10z m-109 -137 c13 -16 12 -17 -3 -4 -17 13 -22 21 -14 21 2 0
10 -8 17 -17z m-2236 -124 c11 -16 1 -19 -13 -3 -7 8 -8 14 -3 14 5 0 13 -5
16 -11z m-80 -79 c3 -6 -1 -7 -9 -4 -18 7 -21 14 -7 14 6 0 13 -4 16 -10z
m1985 -54 c0 -3 -4 -8 -10 -11 -5 -3 -10 -1 -10 4 0 6 5 11 10 11 6 0 10 -2
10 -4z m-1899 -15 c6 10 8 8 7 -7 -2 -18 -5 -20 -19 -11 -10 6 -15 16 -12 21
4 6 8 5 11 -3 4 -11 6 -11 13 0z m-30 -94 c-10 -9 -11 -8 -5 6 3 10 9 15 12
12 3 -3 0 -11 -7 -18z m25 -5 c-17 -16 -18 -16 -5 5 7 12 15 20 18 17 3 -2 -3
-12 -13 -22z m7 -63 c4 -16 3 -18 -9 -8 -11 9 -14 9 -14 -1 0 -8 -3 -10 -6 -7
-6 5 13 37 21 37 1 0 5 -9 8 -21z m-93 1 c0 -5 -5 -10 -11 -10 -5 0 -7 5 -4
10 3 6 8 10 11 10 2 0 4 -4 4 -10z m1675 -8 c-3 -3 -11 0 -18 7 -9 10 -8 11 6
5 10 -3 15 -9 12 -12z m-30 -12 c-3 -5 -12 -10 -18 -10 -7 0 -6 4 3 10 19 12
23 12 15 0z m-1535 -24 c0 -2 -7 -9 -15 -16 -13 -11 -14 -10 -9 4 5 14 24 23
24 12z m-19 -54 c-7 -2 -18 1 -23 6 -8 8 -4 9 13 5 13 -4 18 -8 10 -11z m1271
-44 c-7 -7 -10 -5 -7 8 5 29 6 30 12 16 3 -8 1 -18 -5 -24z m-3474 -63 c-3 -3
-9 2 -12 12 -6 14 -5 15 5 6 7 -7 10 -15 7 -18z m2289 -20 c0 -7 -7 -12 -16
-10 -22 3 -24 20 -3 22 10 1 19 -4 19 -12z m1058 5 c3 -5 1 -10 -4 -10 -6 0
-11 5 -11 10 0 6 2 10 4 10 3 0 8 -4 11 -10z m-3300 -57 c73 -111 156 -199
299 -317 125 -104 404 -209 597 -225 52 -4 854 -8 1783 -9 929 -1 1692 -4
1695 -7 3 -3 -787 -4 -1755 -2 -1746 3 -1760 3 -1849 24 -175 41 -308 97 -449
192 -93 62 -241 209 -302 301 -60 89 -67 100 -61 100 2 0 21 -26 42 -57z
m2550 0 c1 -13 0 -21 -3 -18 -3 2 -13 0 -23 -5 -23 -13 -49 -2 -49 20 0 20 20
21 44 1 13 -11 16 -11 16 2 0 8 -6 18 -12 21 -7 3 -4 5 6 3 12 -1 20 -11 21
-24z m-197 -18 c-3 -3 -9 2 -12 12 -6 14 -5 15 5 6 7 -7 10 -15 7 -18z m546 0
c3 -9 0 -15 -9 -15 -9 0 -12 6 -9 15 4 8 7 15 9 15 2 0 5 -7 9 -15z m-190 -6
c-2 -4 2 -10 8 -12 8 -4 9 -6 2 -6 -6 -1 -17 5 -23 12 -8 10 -7 14 4 14 8 0
12 -4 9 -8z m2546 -164 c-24 -25 -47 -45 -51 -45 -10 0 74 87 86 89 5 0 -11
-19 -35 -44z m-70 -58 c0 -2 -12 -14 -27 -28 l-28 -24 24 28 c23 25 31 32 31
24z m-215 -157 c-3 -5 -12 -10 -18 -10 -7 0 -6 4 3 10 19 12 23 12 15 0z m-60
-30 c-3 -5 -12 -10 -18 -10 -7 0 -6 4 3 10 19 12 23 12 15 0z m-115 -50 c-8
-5 -19 -10 -25 -10 -5 0 -3 5 5 10 8 5 20 10 25 10 6 0 3 -5 -5 -10z m-73 -26
c-3 -3 -12 -4 -19 -1 -8 3 -5 6 6 6 11 1 17 -2 13 -5z m-40 -10 c-3 -3 -12 -4
-19 -1 -8 3 -5 6 6 6 11 1 17 -2 13 -5z m-44 -11 c-7 -2 -19 -2 -25 0 -7 3 -2
5 12 5 14 0 19 -2 13 -5z m-120 -20 c-7 -2 -21 -2 -30 0 -10 3 -4 5 12 5 17 0
24 -2 18 -5z"/>
<path d="M4520 5226 c0 -2 8 -10 18 -17 15 -13 16 -12 3 4 -13 16 -21 21 -21
13z"/>
<path d="M4940 5219 c0 -5 5 -7 10 -4 6 3 10 8 10 11 0 2 -4 4 -10 4 -5 0 -10
-5 -10 -11z"/>
<path d="M4360 5184 c0 -8 5 -12 10 -9 6 3 10 10 10 16 0 5 -4 9 -10 9 -5 0
-10 -7 -10 -16z"/>
<path d="M4470 5179 c0 -5 5 -7 10 -4 6 3 10 8 10 11 0 2 -4 4 -10 4 -5 0 -10
-5 -10 -11z"/>
<path d="M5415 4951 c-6 -11 20 -33 28 -24 4 3 7 10 7 14 0 11 -29 19 -35 10z"/>
<path d="M3694 4829 c-2 -4 0 -10 5 -13 11 -7 41 3 41 13 0 9 -40 9 -46 0z"/>
<path d="M5530 4756 c0 -2 7 -7 16 -10 8 -3 12 -2 9 4 -6 10 -25 14 -25 6z"/>
<path d="M3110 4746 c0 -2 42 -37 93 -77 193 -153 386 -306 487 -387 l105 -84
5 187 c7 245 -19 225 277 225 l224 0 24 -25 c14 -13 25 -20 25 -15 0 5 -12 18
-26 29 -25 20 -39 21 -245 21 -138 0 -227 -4 -242 -11 -41 -18 -47 -49 -47
-224 0 -91 -3 -165 -7 -165 -4 0 -21 13 -38 29 -16 16 -124 103 -240 195 -115
91 -249 198 -297 236 -80 65 -98 77 -98 66z"/>
<path d="M3585 4739 c-4 -6 -5 -12 -2 -15 2 -3 7 2 10 11 7 17 1 20 -8 4z"/>
<path d="M4352 4143 l-2 -411 323 -258 c418 -334 414 -332 398 -310 -8 9 -94
80 -190 156 -97 75 -252 199 -346 274 l-170 136 -5 413 -5 412 -3 -412z"/>
<path d="M5696 4403 c-6 -14 -5 -15 5 -6 7 7 10 15 7 18 -3 3 -9 -2 -12 -12z"/>
<path d="M5697 4363 c-4 -3 -7 -11 -7 -17 0 -6 5 -5 12 2 6 6 9 14 7 17 -3 3
-9 2 -12 -2z"/>
<path d="M2595 4185 c-22 -21 -25 -33 -25 -100 0 -67 3 -79 25 -100 l24 -25
344 0 c286 0 346 2 363 15 10 8 14 15 7 15 -6 0 -15 -4 -18 -10 -4 -6 -122 -9
-328 -8 l-322 2 312 6 c171 3 315 9 320 13 4 5 -1 8 -12 7 -36 -4 -61 0 -49 8
6 4 10 15 9 24 -2 9 8 26 21 39 22 20 24 47 3 33 -5 -3 -7 -10 -4 -15 4 -5 1
-9 -4 -9 -19 0 -12 13 25 51 20 21 33 42 30 48 -5 7 -68 12 -179 13 l-172 2
175 6 c144 5 114 6 -173 8 l-348 2 -24 -25z m362 9 c-3 -3 -12 -4 -19 -1 -8 3
-5 6 6 6 11 1 17 -2 13 -5z m283 -158 c0 -3 -4 -8 -10 -11 -5 -3 -10 -1 -10 4
0 6 5 11 10 11 6 0 10 -2 10 -4z"/>
<path d="M3331 4183 c7 -12 15 -20 18 -17 3 2 -3 12 -13 22 -17 16 -18 16 -5
-5z"/>
<path d="M3304 4138 c-4 -6 -3 -8 3 -5 7 5 11 -6 11 -29 0 -19 3 -38 6 -41 3
-4 6 15 6 40 0 45 -11 60 -26 35z"/>
<path d="M3352 4093 c-1 -34 -5 -70 -8 -80 -5 -17 -5 -17 6 -1 6 10 9 45 7 80
l-3 63 -2 -62z"/>
<path d="M3286 4065 c-9 -26 -7 -32 5 -12 6 10 9 21 6 23 -2 3 -7 -2 -11 -11z"/>
<path d="M5770 3840 c0 -5 5 -10 11 -10 5 0 7 5 4 10 -3 6 -8 10 -11 10 -2 0
-4 -4 -4 -10z"/>
<path d="M1793 3600 l-33 -20 0 -89 c0 -74 3 -92 21 -115 l20 -26 1157 2 1157
3 -820 5 c-451 3 -761 7 -690 9 72 2 135 4 140 6 6 1 82 3 170 5 88 2 136 5
108 7 -45 3 -53 7 -53 24 0 10 5 19 11 19 5 0 9 8 8 18 -3 32 1 42 16 42 8 0
15 5 15 10 0 6 -8 10 -19 10 -13 0 -18 6 -16 23 4 37 5 38 14 33 5 -3 11 1 15
9 4 10 -2 15 -17 17 -12 0 -26 2 -32 3 -5 2 -50 4 -100 6 -49 2 115 6 365 9
362 4 265 6 -475 8 -912 2 -931 2 -962 -18z m1187 -114 c0 -3 -4 -8 -10 -11
-5 -3 -10 -1 -10 4 0 6 5 11 10 11 6 0 10 -2 10 -4z"/>
<path d="M3773 3613 c9 -2 25 -2 35 0 9 3 1 5 -18 5 -19 0 -27 -2 -17 -5z"/>
<path d="M4152 3535 c0 -16 2 -22 5 -12 2 9 2 23 0 30 -3 6 -5 -1 -5 -18z"/>
<path d="M2991 3543 c-1 -17 16 -25 25 -12 4 7 3 9 -4 5 -5 -3 -13 0 -15 6 -4
9 -6 10 -6 1z"/>
<path d="M3001 3434 c0 -11 3 -14 6 -6 3 7 2 16 -1 19 -3 4 -6 -2 -5 -13z"/>
<path d="M4138 3392 l-17 -37 19 24 c11 13 20 29 20 37 0 21 -3 17 -22 -24z"/>
<path d="M3088 3383 c6 -2 18 -2 25 0 6 3 1 5 -13 5 -14 0 -19 -2 -12 -5z"/>
<path d="M5080 3102 c0 -21 -7 -49 -16 -62 l-16 -25 21 24 c19 21 31 101 16
101 -3 0 -5 -17 -5 -38z"/>
<path d="M1803 3060 c-34 -14 -43 -42 -43 -135 0 -78 2 -88 25 -110 l24 -25
1148 2 1148 3 -950 5 c-522 3 -876 7 -785 9 91 3 181 6 200 7 19 1 116 2 214
3 175 1 233 8 108 12 -42 2 -62 6 -62 15 0 7 -6 15 -12 17 -10 4 -10 6 0 6 7
1 10 5 7 11 -4 6 1 7 12 4 16 -5 16 -4 -1 10 -17 14 -18 16 -3 16 13 0 15 5 7
25 -7 20 -6 25 5 25 8 0 15 7 15 16 0 9 -5 12 -12 8 -9 -5 -9 -3 1 9 7 9 17
15 21 12 5 -3 11 -1 15 5 3 5 -3 10 -14 10 -12 0 -21 -4 -21 -10 0 -5 -5 -10
-11 -10 -6 0 -9 7 -5 15 5 15 -17 20 -69 16 -17 -2 -17 0 -5 8 10 8 -72 11
-275 13 -159 2 140 5 665 8 l955 5 -1140 2 c-638 1 -1150 -2 -1162 -7z m1008
-117 c13 -16 12 -17 -3 -4 -17 13 -22 21 -14 21 2 0 10 -8 17 -17z m-7 -89
c20 -8 21 -21 1 -21 -8 0 -12 4 -9 8 2 4 -2 10 -8 12 -7 3 -10 6 -6 6 3 1 13
-2 22 -5z"/>
<path d="M2828 3043 c6 -2 18 -2 25 0 6 3 1 5 -13 5 -14 0 -19 -2 -12 -5z"/>
<path d="M4998 3003 c7 -3 16 -2 19 1 4 3 -2 6 -13 5 -11 0 -14 -3 -6 -6z"/>
<path d="M4153 2935 c0 -33 2 -45 4 -27 2 18 2 45 0 60 -2 15 -4 0 -4 -33z"/>
<path d="M4524 2725 c0 -126 2 -177 3 -112 2 65 2 168 0 230 -1 62 -3 9 -3
-118z"/>
<path d="M2870 2921 c0 -6 4 -13 10 -16 6 -3 7 1 4 9 -7 18 -14 21 -14 7z"/>
<path d="M5589 2718 c-6 -24 -5 -58 2 -58 5 0 9 14 9 30 0 17 -2 30 -5 30 -3
0 -5 -1 -6 -2z"/>
<path d="M5136 1913 c-6 -14 -5 -15 5 -6 7 7 10 15 7 18 -3 3 -9 -2 -12 -12z"/>
<path d="M3083 1715 c0 -22 2 -30 4 -17 2 12 2 30 0 40 -3 9 -5 -1 -4 -23z"/>
<path d="M2767 1663 c-11 -11 -8 -21 9 -27 13 -5 14 -4 6 7 -7 8 -9 17 -5 20
3 4 4 7 1 7 -2 0 -8 -3 -11 -7z"/>
<path d="M2820 1640 c0 -6 7 -10 15 -10 8 0 15 2 15 4 0 2 -7 6 -15 10 -8 3
-15 1 -15 -4z"/>
<path d="M4542 1370 c0 -14 2 -19 5 -12 2 6 2 18 0 25 -3 6 -5 1 -5 -13z"/>
<path d="M4450 1249 c-13 -9 -12 -10 3 -5 11 3 17 0 17 -10 0 -12 4 -13 20 -4
11 6 18 16 14 22 -4 7 -9 6 -15 -3 -6 -10 -9 -11 -9 -1 0 15 -10 15 -30 1z"/>
<path d="M2460 1210 c0 -5 5 -10 11 -10 5 0 7 5 4 10 -3 6 -8 10 -11 10 -2 0
-4 -4 -4 -10z"/>
<path d="M4450 1210 c0 -5 11 -9 25 -8 27 3 25 10 -5 15 -11 2 -20 -2 -20 -7z"/>
<path d="M4366 1156 c4 -11 1 -22 -7 -27 -11 -7 -11 -9 3 -9 24 0 30 14 13 36
-14 18 -15 18 -9 0z"/>
<path d="M2489 1143 c-13 -16 -12 -17 4 -4 9 7 17 15 17 17 0 8 -8 3 -21 -13z"/>
<path d="M4306 1128 c3 -5 10 -6 15 -3 13 9 11 12 -6 12 -8 0 -12 -4 -9 -9z"/>
<path d="M4156 1058 c3 -5 10 -6 15 -3 13 9 11 12 -6 12 -8 0 -12 -4 -9 -9z"/>
<path d="M2490 1009 c0 -5 5 -7 10 -4 6 3 10 8 10 11 0 2 -4 4 -10 4 -5 0 -10
-5 -10 -11z"/>
<path d="M4050 970 c0 -5 7 -7 15 -4 8 4 15 8 15 10 0 2 -7 4 -15 4 -8 0 -15
-4 -15 -10z"/>
<path d="M2451 934 c0 -11 3 -14 6 -6 3 7 2 16 -1 19 -3 4 -6 -2 -5 -13z"/>
<path d="M2475 939 c-4 -6 -4 -13 -1 -16 3 -4 6 -1 6 6 0 7 5 9 12 5 7 -4 8
-3 4 4 -9 15 -13 15 -21 1z"/>
<path d="M3946 921 c-4 -5 3 -7 14 -4 23 6 26 13 6 13 -8 0 -17 -4 -20 -9z"/>
<path d="M3756 865 c4 -8 11 -15 16 -15 6 0 5 6 -2 15 -7 8 -14 15 -16 15 -2
0 -1 -7 2 -15z"/>
<path d="M2446 853 c-4 -9 3 -13 24 -11 17 1 30 7 30 13 0 16 -48 14 -54 -2z"/>
<path d="M3810 850 c5 -9 16 -23 25 -30 15 -12 15 -10 9 15 -5 20 -4 26 4 21
7 -4 19 -3 27 1 10 6 0 9 -29 9 -38 0 -43 -3 -36 -16z"/>
<path d="M2595 850 c3 -5 8 -10 11 -10 2 0 4 5 4 10 0 6 -5 10 -11 10 -5 0 -7
-4 -4 -10z"/>
<path d="M3560 779 c0 -5 5 -7 10 -4 6 3 10 8 10 11 0 2 -4 4 -10 4 -5 0 -10
-5 -10 -11z"/>
<path d="M2600 770 c0 -5 5 -10 11 -10 5 0 7 5 4 10 -3 6 -8 10 -11 10 -2 0
-4 -4 -4 -10z"/>
<path d="M2630 771 c0 -6 4 -13 10 -16 6 -3 7 1 4 9 -7 18 -14 21 -14 7z"/>
<path d="M2556 757 c-14 -10 -15 -14 -4 -14 7 0 19 6 26 14 7 7 9 13 4 13 -4
0 -16 -6 -26 -13z"/>
<path d="M3292 720 c-11 -17 -10 -23 3 -37 15 -14 15 -13 10 13 l-5 29 11 -27
c6 -17 15 -25 25 -21 8 3 14 -1 14 -8 0 -7 3 -9 7 -6 3 4 12 2 19 -4 8 -7 14
-7 19 1 3 5 2 10 -3 10 -5 0 -8 15 -6 32 l4 33 -16 -23 -16 -23 -15 20 c-8 12
-18 19 -23 16 -4 -3 -10 -1 -12 5 -2 6 -9 1 -16 -10z m48 -21 c0 -6 -4 -7 -10
-4 -5 3 -10 11 -10 16 0 6 5 7 10 4 6 -3 10 -11 10 -16z"/>
<path d="M3345 730 c3 -5 8 -10 11 -10 2 0 4 5 4 10 0 6 -5 10 -11 10 -5 0 -7
-4 -4 -10z"/>
<path d="M2560 715 c7 -8 16 -12 21 -9 13 8 1 24 -18 24 -13 0 -13 -3 -3 -15z"/>
<path d="M2593 710 c-1 -11 2 -18 8 -15 11 7 12 35 1 35 -4 0 -8 -9 -9 -20z"/>
<path d="M2713 715 c0 -8 4 -12 9 -9 5 3 6 10 3 15 -9 13 -12 11 -12 -6z"/>
<path d="M2540 684 c0 -8 5 -12 10 -9 6 3 10 10 10 16 0 5 -4 9 -10 9 -5 0
-10 -7 -10 -16z"/>
<path d="M2870 691 c0 -7 -5 -9 -12 -5 -7 5 -8 3 -3 -5 5 -9 10 -10 18 -2 6 6
8 14 4 18 -4 3 -7 1 -7 -6z"/>
<path d="M3095 670 c-3 -5 -1 -10 4 -10 6 0 11 5 11 10 0 6 -2 10 -4 10 -3 0
-8 -4 -11 -10z"/>
<path d="M3150 645 c0 -8 4 -15 10 -15 5 0 7 7 4 15 -4 8 -8 15 -10 15 -2 0
-4 -7 -4 -15z"/>
<path d="M2738 603 c7 -3 16 -2 19 1 4 3 -2 6 -13 5 -11 0 -14 -3 -6 -6z"/>
<path d="M4733 5843 c15 -2 37 -2 50 0 12 2 0 4 -28 4 -27 0 -38 -2 -22 -4z"/>
<path d="M4818 5833 c6 -2 18 -2 25 0 6 3 1 5 -13 5 -14 0 -19 -2 -12 -5z"/>
<path d="M4880 5820 c34 -11 60 -11 35 0 -11 5 -29 8 -40 8 -16 0 -15 -2 5 -8z"/>
<path d="M5025 5777 c112 -42 192 -82 281 -142 41 -28 55 -34 34 -16 -73 63
-285 168 -375 186 -16 3 11 -9 60 -28z"/>
<path d="M5380 5588 c0 -2 39 -39 88 -83 48 -43 69 -59 47 -36 -40 42 -135
126 -135 119z"/>
<path d="M5570 5395 c13 -14 26 -25 28 -25 3 0 -5 11 -18 25 -13 14 -26 25
-28 25 -3 0 5 -11 18 -25z"/>
<path d="M5657 5278 c88 -134 137 -244 179 -403 12 -49 23 -80 24 -69 0 35
-46 186 -88 281 -37 85 -129 239 -157 263 -7 6 11 -26 42 -72z"/>
<path d="M5862 4755 c0 -16 2 -22 5 -12 2 9 2 23 0 30 -3 6 -5 -1 -5 -18z"/>
<path d="M5873 4675 c0 -27 2 -38 4 -22 2 15 2 37 0 50 -2 12 -4 0 -4 -28z"/>
<path d="M5852 2370 c0 -19 2 -27 5 -17 2 9 2 25 0 35 -3 9 -5 1 -5 -18z"/>
<path d="M5882 2140 c0 -19 2 -27 5 -17 2 9 2 25 0 35 -3 9 -5 1 -5 -18z"/>
</g>
</svg>
